<svg xmlns="http://www.w3.org/2000/svg" style="display: none;">
    <symbol id="trash" viewBox="0 0 24 24">
        <path d="M3 6v18h18v-18h-18zm5 14c0 .552-.448 1-1 1s-1-.448-1-1v-10c0-.552.448-1 1-1s1 .448 1 1v10zm5 0c0 .552-.448 1-1 1s-1-.448-1-1v-10c0-.552.448-1 1-1s1 .448 1 1v10zm5 0c0 .552-.448 1-1 1s-1-.448-1-1v-10c0-.552.448-1 1-1s1 .448 1 1v10zm4-18v2h-20v-2h5.711c.9 0 1.631-1.099 1.631-2h5.315c0 .901.73 2 1.631 2h5.712z"></path>
    </symbol>
    <symbol id="drag" viewBox="0 0 24 24">
        <path d="M12 10c1.104 0 2 .896 2 2s-.896 2-2 2-2-.896-2-2 .896-2 2-2zm-3.857 3c-.084-.321-.143-.652-.143-1s.059-.679.143-1h-2.143v-4l-6 5 6 5v-4h2.143zm7.714-2c.084.321.143.652.143 1s-.059.679-.143 1h2.143v4l6-5-6-5v4h-2.143zm-2.857 4.857c-.321.084-.652.143-1 .143s-.679-.059-1-.143v2.143h-4l5 6 5-6h-4v-2.143zm-2-7.714c.321-.084.652-.143 1-.143s.679.059 1 .143v-2.143h4l-5-6-5 6h4v2.143z"></path>
    </symbol>
</svg>
